<svg viewBox="0 0 470 500" xmlns="http://www.w3.org/2000/svg">
            <g transform="matrix(0.035218, 0, 0, -0.035218, -212.328903, 765.19928)" fill="#ff59c7" stroke="none">
            <path d="M8020 21624 c-294 -53 -537 -182 -746 -396 -211 -214 -330 -448 -379 -741 -14 -82 -15 -574 -13 -4469 l3 -4377 50 40 c267 215 603 374 936 444 200 42 420 58 621 45 172 -12 301 -36 453 -85 61 -19 116 -35 122 -35 10 0 13 684 15 3372 l3 3372 90 39 c195 84 754 285 1061 382 479 151 1138 327 1577 421 97 20 177 41 177 44 0 4 -696 412 -1547 907 -1587 923 -1596 928 -1818 997 -146 46 -217 56 -378 55 -84 -1 -186 -7 -227 -15z"/>
            <path d="M15640 14758 c0 -1781 -4 -2829 -10 -2873 -6 -38 -18 -103 -27 -142 -9 -40 -14 -75 -11 -79 7 -6 2918 1685 3028 1760 103 70 293 262 363 367 109 164 191 360 243 576 33 139 34 356 3 500 -44 204 -134 418 -246 588 -78 117 -242 284 -354 361 -55 38 -2677 1570 -2946 1722 l-43 24 0 -2804z"/>
            <path d="M14435 16935 c-1105 -94 -2208 -278 -3309 -551 -315 -79 -768 -205 -1004 -280 l-172 -55 0 -2657 c0 -2912 4 -2721 -60 -2914 -79 -238 -217 -448 -432 -653 -544 -521 -1421 -718 -2135 -480 -124 41 -305 125 -384 179 l-54 36 -3 -342 c-4 -389 3 -466 55 -638 44 -147 87 -239 170 -364 70 -106 210 -255 318 -337 123 -94 323 -193 463 -229 168 -43 462 -55 609 -24 81 16 288 88 388 134 78 35 4539 2632 4545 2645 3 6 -20 14 -50 18 -129 20 -307 60 -388 88 -748 262 -1110 907 -895 1594 34 108 109 257 190 378 82 121 279 325 405 418 555 411 1319 548 1943 349 51 -17 95 -30 99 -30 3 0 6 842 6 1870 0 1775 -1 1870 -17 1869 -10 -1 -139 -12 -288 -24z"/>
            </g>
        </svg>